<svg xmlns="http://www.w3.org/2000/svg" viewBox="0 0 32 32" width="32" height="32">
  <defs>
    <linearGradient id="globeGradient" x1="0%" y1="0%" x2="100%" y2="100%">
      <stop offset="0%" style="stop-color:#2563eb;stop-opacity:1" />
      <stop offset="100%" style="stop-color:#1d4ed8;stop-opacity:1" />
    </linearGradient>
    <linearGradient id="landGradient" x1="0%" y1="0%" x2="100%" y2="100%">
      <stop offset="0%" style="stop-color:#10b981;stop-opacity:1" />
      <stop offset="100%" style="stop-color:#059669;stop-opacity:1" />
    </linearGradient>
  </defs>
  
  <!-- Globe background -->
  <circle cx="16" cy="16" r="14" fill="url(#globeGradient)" stroke="#1e40af" stroke-width="1"/>
  
  <!-- Globe grid lines -->
  <ellipse cx="16" cy="16" rx="14" ry="7" fill="none" stroke="#3b82f6" stroke-width="0.5" opacity="0.6"/>
  <ellipse cx="16" cy="16" rx="7" ry="14" fill="none" stroke="#3b82f6" stroke-width="0.5" opacity="0.6"/>
  <line x1="2" y1="16" x2="30" y2="16" stroke="#3b82f6" stroke-width="0.5" opacity="0.6"/>
  <line x1="16" y1="2" x2="16" y2="30" stroke="#3b82f6" stroke-width="0.5" opacity="0.6"/>
  
  <!-- Land masses -->
  <path d="M8 12 Q12 10 16 12 Q20 14 24 12 Q22 16 24 20 Q20 22 16 20 Q12 18 8 20 Q6 16 8 12 Z" fill="url(#landGradient)" opacity="0.8"/>
  <path d="M6 8 Q10 6 14 8 Q18 10 22 8 Q20 12 22 16 Q18 18 14 16 Q10 14 6 16 Q4 12 6 8 Z" fill="url(#landGradient)" opacity="0.7"/>
  <path d="M10 20 Q14 18 18 20 Q22 22 26 20 Q24 24 26 28 Q22 30 18 28 Q14 26 10 28 Q8 24 10 20 Z" fill="url(#landGradient)" opacity="0.7"/>
  
  <!-- Highlight -->
  <ellipse cx="12" cy="10" rx="3" ry="6" fill="#ffffff" opacity="0.3"/>
</svg>
